<svg aria-hidden="true" style="position: absolute; width: 0; height: 0; overflow: hidden;" version="1.1" xmlns="http://www.w3.org/2000/svg" xmlns:xlink="http://www.w3.org/1999/xlink">
<defs>
<symbol id="icon-logo" viewBox="0 0 32 32">
<path fill="#fccb4c" style="fill: var(--color1, #fccb4c)" d="M14.464-0.003c0.042 0 0.042 0 0.085-0 0.031 0 0.062 0 0.093 0 0.049-0 0.049-0 0.098-0 0.089 0 0.178 0 0.268 0 0.093 0 0.187 0 0.28 0 0.157 0 0.313 0 0.47 0 0.181 0 0.362 0 0.544-0 0.155 0 0.311 0 0.466 0 0.093 0 0.186 0 0.279 0 0.104 0 0.207 0 0.311 0 0.046-0 0.046-0 0.093-0 0.028 0 0.056 0 0.085 0 0.037 0 0.037 0 0.074 0 0.059 0.003 0.108 0.013 0.165 0.028 0.061 0.003 0.122 0.005 0.184 0.006 0.037 0.001 0.074 0.002 0.111 0.003 0.058 0.001 0.115 0.002 0.173 0.003 0.24 0.004 0.47 0.021 0.707 0.063 0.236 0.034 0.472 0.054 0.71 0.068 0.115 0.009 0.228 0.027 0.342 0.047 0.073 0.012 0.073 0.012 0.151 0.009 0.076 0.002 0.107 0.017 0.172 0.052 0.063 0.010 0.063 0.010 0.13 0.013 0.086 0.005 0.167 0.017 0.251 0.036 0.125 0.029 0.25 0.047 0.377 0.064 0.046 0.007 0.093 0.013 0.139 0.019 0.033 0.005 0.033 0.005 0.067 0.010 0.177 0.025 0.343 0.052 0.512 0.109 0.068 0.012 0.137 0.023 0.206 0.034 0.142 0.024 0.284 0.053 0.425 0.083 0.021 0.004 0.042 0.008 0.063 0.013 0.019 0.004 0.037 0.008 0.056 0.012 0.054 0.010 0.054 0.010 0.125 0.008 0 0.016 0 0.033 0 0.050 0.036 0.004 0.072 0.008 0.108 0.012 0.030 0.003 0.030 0.003 0.061 0.007 0.059 0.007 0.059 0.007 0.131 0.005 0.008 0.016 0.017 0.033 0.025 0.050 0.058 0.010 0.116 0.018 0.175 0.025 0.064 0.013 0.128 0.027 0.192 0.042 0.018 0.004 0.037 0.009 0.055 0.013 0.228 0.055 0.454 0.122 0.679 0.188 0.022 0.006 0.044 0.013 0.067 0.020 0.339 0.099 0.675 0.204 1.009 0.32 0.041 0.014 0.081 0.028 0.122 0.042 0.036 0.014 0.072 0.028 0.108 0.042 0.021 0.008 0.042 0.017 0.064 0.026s0.044 0.018 0.067 0.027c0.021 0.008 0.043 0.017 0.065 0.026 0.044 0.018 0.087 0.035 0.131 0.052 0.042 0.017 0.084 0.034 0.127 0.050 0.164 0.065 0.326 0.134 0.488 0.204 0.026 0.011 0.052 0.022 0.078 0.034 0.024 0.011 0.049 0.022 0.075 0.032 0.022 0.010 0.044 0.019 0.067 0.029 0.055 0.027 0.055 0.027 0.105 0.077 0.047 0.019 0.095 0.036 0.142 0.053 0.266 0.1 0.51 0.24 0.752 0.389 0.083 0.049 0.169 0.091 0.256 0.133 0 0.017 0 0.033 0 0.050 0.014 0.007 0.029 0.014 0.043 0.021 0.056 0.029 0.11 0.059 0.163 0.091 0.018 0.010 0.035 0.021 0.053 0.032 0.013 0.010 0.026 0.020 0.040 0.030 0 0.017 0 0.033 0 0.050 0.027 0.003 0.027 0.003 0.055 0.006 0.085 0.022 0.131 0.059 0.195 0.119 0 0.017 0 0.033 0 0.050 0.015 0.003 0.029 0.006 0.044 0.009 0.057 0.016 0.104 0.038 0.156 0.066 0 0.017 0 0.033 0 0.050 0.017 0 0.033 0 0.050 0 0 0.017 0 0.033 0 0.050 0.025 0.008 0.049 0.017 0.075 0.025 0.043 0.043 0.043 0.043 0.087 0.097 0.063 0.075 0.063 0.075 0.131 0.144 0.032 0.034 0.032 0.034 0.032 0.084 0.025 0.008 0.049 0.017 0.075 0.025 0.214 0.26 0.346 0.529 0.325 0.875-0.017 0.042-0.033 0.083-0.050 0.125-0.004 0.070-0.004 0.070 0 0.141 0.006 0.126 0.006 0.126-0.050 0.21-0.010 0.050-0.018 0.1-0.025 0.15-0.017 0-0.033 0-0.050 0-0.003 0.019-0.006 0.037-0.009 0.056-0.015 0.064-0.034 0.112-0.066 0.169-0.017 0-0.033 0-0.050 0-0.008 0.016-0.017 0.033-0.025 0.050-0.017-0.008-0.033-0.016-0.050-0.025-0.008 0.041-0.017 0.082-0.025 0.125-0.025-0.008-0.049-0.016-0.075-0.025-0.003 0.023-0.003 0.023-0.007 0.046-0.033 0.098-0.131 0.132-0.218 0.179-0.229 0.108-0.475 0.15-0.726 0.158-0.048 0.002-0.048 0.002-0.098 0.003-0.033 0.001-0.067 0.002-0.1 0.003s-0.068 0.002-0.102 0.003c-0.083 0.003-0.166 0.005-0.249 0.008-0.007 0.025-0.015 0.050-0.022 0.075-0.060 0.201-0.129 0.393-0.215 0.585-0.042 0.098-0.080 0.197-0.117 0.298-0.038 0.103-0.076 0.204-0.122 0.303-0.059 0.127-0.102 0.26-0.148 0.393-0.028 0.082-0.055 0.149-0.102 0.221-0.017 0-0.033 0-0.050 0 0 0.041 0 0.082 0 0.125-0.017 0-0.033 0-0.050 0-0.002 0.032-0.004 0.064-0.006 0.097-0.020 0.175-0.091 0.327-0.172 0.481-0.050 0.097-0.074 0.191-0.097 0.297-0.017 0-0.033 0-0.050 0-0.002 0.024-0.005 0.048-0.007 0.073-0.017 0.12-0.062 0.227-0.107 0.338-0.008 0.021-0.017 0.041-0.025 0.063-0.020 0.050-0.041 0.101-0.061 0.152-0.017 0-0.033 0-0.050 0-0.003 0.026-0.005 0.052-0.008 0.078-0.017 0.098-0.047 0.159-0.092 0.247-0.021 0.065-0.040 0.13-0.059 0.196-0.016 0.054-0.016 0.054-0.041 0.104-0.017 0-0.033 0-0.050 0 0.003 0.031 0.003 0.031 0.006 0.063-0.007 0.099-0.036 0.154-0.082 0.24-0.029 0.056-0.041 0.11-0.049 0.173-0.017 0-0.033 0-0.050 0 0.002 0.032 0.002 0.032 0.005 0.064-0.008 0.135-0.070 0.242-0.13 0.361-0.046 0.1-0.084 0.191-0.1 0.3-0.017 0-0.033 0-0.050 0 0.002 0.027 0.002 0.027 0.003 0.055-0.005 0.109-0.043 0.181-0.103 0.271-0.014 0.037-0.026 0.075-0.038 0.113-0.023 0.075-0.043 0.121-0.087 0.188-0.009 0.050-0.017 0.1-0.025 0.15-0.028 0.065-0.061 0.116-0.1 0.175-0.015 0.051-0.025 0.102-0.036 0.154-0.014 0.046-0.014 0.046-0.064 0.096-0.014 0.039-0.025 0.078-0.036 0.117-0.030 0.107-0.069 0.206-0.114 0.308-0.012 0.031-0.024 0.063-0.036 0.095-0.044 0.119-0.091 0.237-0.139 0.355-0.017 0-0.033 0-0.050 0-0.003 0.026-0.006 0.052-0.009 0.078-0.014 0.088-0.035 0.164-0.066 0.247-0.017 0-0.033 0-0.050 0 0.002 0.026 0.002 0.026 0.003 0.053-0.005 0.116-0.039 0.201-0.103 0.297-0.017 0.033-0.034 0.066-0.050 0.1-0.008 0.017-0.017 0.033-0.025 0.050-0.017 0-0.033 0-0.050 0 0 0.058 0 0.116 0 0.175-0.017 0-0.033 0-0.050 0-0.004 0.018-0.007 0.037-0.011 0.056-0.020 0.098-0.043 0.177-0.089 0.266-0.023 0.049-0.041 0.096-0.056 0.148-0.056 0.171-0.126 0.338-0.194 0.505-0.017 0.041-0.034 0.083-0.050 0.125-0.017 0-0.033 0-0.050 0 0.001 0.021 0.002 0.043 0.003 0.066-0.003 0.088-0.022 0.153-0.053 0.235-0.017 0-0.033 0-0.050 0-0.002 0.024-0.004 0.047-0.006 0.072-0.011 0.076-0.032 0.141-0.061 0.212-0.043 0.104-0.083 0.208-0.123 0.313-0.017 0.046-0.017 0.046-0.035 0.093s-0.035 0.094-0.053 0.141c-0.070 0.186-0.142 0.371-0.22 0.555-0.031 0.075-0.061 0.149-0.089 0.225-0.015 0.041-0.015 0.041-0.031 0.081-0.011 0.027-0.021 0.055-0.032 0.083-0.022 0.057-0.044 0.113-0.066 0.17-0.045 0.118-0.090 0.236-0.134 0.355-0.008-0.017-0.017-0.033-0.025-0.050-0.025 0-0.049 0-0.075 0 0 0.025 0 0.049 0 0.075 0.017 0 0.033 0 0.050 0-0.008 0.114-0.035 0.204-0.081 0.31-0.084 0.197-0.159 0.396-0.235 0.596-0.016 0.042-0.016 0.042-0.032 0.084-0.009 0.025-0.019 0.050-0.029 0.076-0.024 0.058-0.024 0.058-0.049 0.083-0.009 0.041-0.017 0.083-0.025 0.125-0.017-0.025-0.033-0.049-0.050-0.075 0 0.058 0 0.116 0 0.175-0.017 0-0.033 0-0.050 0-0.002 0.022-0.002 0.022-0.003 0.045-0.002 0.020-0.003 0.040-0.005 0.060s-0.003 0.039-0.005 0.059c-0.015 0.074-0.048 0.122-0.088 0.186-0.020 0.048-0.038 0.096-0.055 0.145-0.009 0.024-0.017 0.049-0.026 0.074-0.006 0.018-0.013 0.037-0.019 0.056-0.017 0-0.033 0-0.050 0 0 0.041 0 0.082 0 0.125-0.025-0.008-0.049-0.017-0.075-0.025 0.002 0.043 0.002 0.043 0.005 0.086 0 0.165-0.056 0.36-0.171 0.483-0.011 0.010-0.023 0.020-0.034 0.031 0.008 0.017 0.017 0.033 0.025 0.050-0.023 0.098-0.055 0.181-0.128 0.252-0.067 0.069-0.061 0.13-0.072 0.224-0.027 0.086-0.060 0.169-0.1 0.25-0.008 0-0.017 0-0.025 0-0.004 0.026-0.004 0.026-0.008 0.052-0.016 0.069-0.041 0.127-0.070 0.191-0.041 0.106-0.069 0.217-0.098 0.327-0.020 0.067-0.043 0.119-0.074 0.18-0.014 0.032-0.028 0.065-0.041 0.098-0.008 0.018-0.015 0.037-0.023 0.055s-0.015 0.038-0.023 0.057c-0.008 0.019-0.015 0.038-0.023 0.057-0.038 0.094-0.077 0.188-0.114 0.282-0.025-0.008-0.049-0.017-0.075-0.025 0.002 0.043 0.002 0.043 0.005 0.087 0 0.116-0.035 0.206-0.080 0.313-0.008 0.025-0.017 0.049-0.025 0.075-0.024 0.058-0.050 0.117-0.075 0.175-0.025-0.008-0.049-0.017-0.075-0.025 0.006 0.025 0.011 0.050 0.017 0.076 0.008 0.095-0 0.135-0.041 0.217-0.036 0.079-0.064 0.16-0.093 0.242-0.011 0.031-0.022 0.062-0.033 0.094-0.008 0.023-0.017 0.047-0.025 0.070-0.025-0.008-0.049-0.017-0.075-0.025 0.006 0.028 0.012 0.057 0.019 0.086 0.017 0.13-0.029 0.228-0.094 0.339-0.017 0.017-0.033 0.033-0.050 0.050-0.014 0.045-0.026 0.090-0.038 0.136-0.021 0.087-0.037 0.139-0.087 0.214-0.014 0.037-0.027 0.073-0.039 0.111-0.009 0.029-0.009 0.029-0.019 0.058-0.016 0.052-0.029 0.104-0.042 0.157-0.017 0-0.033 0-0.050 0-0.008 0.025-0.017 0.049-0.025 0.075-0.017 0.008-0.033 0.017-0.050 0.025-0.009 0.063-0.011 0.125-0.014 0.189-0.013 0.071-0.031 0.092-0.086 0.136-0.008 0.008-0.017 0.017-0.025 0.025 0.008 0.025 0.017 0.049 0.025 0.075-0.024 0.069-0.050 0.134-0.080 0.2-0.016 0.038-0.033 0.077-0.049 0.115-0.008 0.019-0.016 0.038-0.024 0.057-0.037 0.089-0.070 0.18-0.102 0.27-0.022 0.061-0.046 0.122-0.070 0.183-0.033 0-0.066 0-0.1 0 0 0.025 0 0.049 0 0.075 0.017 0.008 0.033 0.017 0.050 0.025-0.144 0.392-0.144 0.392-0.2 0.511-0.057 0.124-0.1 0.253-0.143 0.382-0.037 0.109-0.081 0.21-0.135 0.311-0.024 0.046-0.024 0.046-0.034 0.099-0.013 0.047-0.013 0.047-0.063 0.098 0 0.025 0 0.049 0 0.075-0.017 0-0.033 0-0.050 0-0.003 0.017-0.007 0.035-0.011 0.053-0.015 0.072-0.031 0.144-0.049 0.215-0.006 0.024-0.012 0.048-0.018 0.073-0.011 0.029-0.011 0.029-0.023 0.058-0.025 0.008-0.049 0.017-0.075 0.025 0.001 0.035 0.001 0.035 0.002 0.072-0.002 0.078-0.002 0.078-0.026 0.128-0.017 0-0.033 0-0.050 0 0 0.041 0 0.082 0 0.125-0.017 0-0.033 0-0.050 0-0.003 0.026-0.006 0.052-0.009 0.079-0.013 0.082-0.032 0.145-0.066 0.221-0.017 0-0.033 0-0.050 0-0.002 0.032-0.004 0.064-0.006 0.097-0.013 0.111-0.044 0.203-0.088 0.305-0.038 0.089-0.071 0.18-0.104 0.27-0.322 0.86-0.322 0.86-0.576 1.153-0.017 0-0.033 0-0.050 0-0.002 0.014-0.004 0.028-0.006 0.042-0.042 0.13-0.157 0.231-0.244 0.333-0.018 0.021-0.036 0.043-0.055 0.066-0.138 0.161-0.29 0.297-0.471 0.41-0.025 0-0.049 0-0.075 0 0 0.017 0 0.033 0 0.050-0.169 0.091-0.309 0.115-0.5 0.112-0.023 0-0.047 0.001-0.071 0.001-0.164-0.001-0.286-0.036-0.429-0.113 0-0.017 0-0.033 0-0.050-0.017-0.002-0.034-0.003-0.052-0.004-0.1-0.029-0.165-0.088-0.242-0.155-0.023-0.020-0.023-0.020-0.046-0.040-0.12-0.106-0.22-0.22-0.316-0.348-0.042-0.058-0.042-0.058-0.119-0.077-0.018-0.041-0.034-0.083-0.050-0.125-0.039-0.064-0.081-0.126-0.123-0.188-0.201-0.297-0.201-0.297-0.201-0.363-0.017 0-0.033 0-0.050 0-0.007-0.017-0.013-0.033-0.019-0.050-0.008-0.022-0.017-0.044-0.026-0.067s-0.017-0.044-0.025-0.066c-0.028-0.067-0.028-0.067-0.067-0.129-0.040-0.067-0.062-0.131-0.085-0.205-0.045-0.139-0.096-0.273-0.152-0.408-0.017-0.042-0.034-0.084-0.050-0.125-0.025-0.062-0.049-0.123-0.074-0.185-0.088-0.22-0.173-0.441-0.256-0.663-0.010-0.026-0.020-0.053-0.030-0.081-0.020-0.053-0.040-0.106-0.059-0.159-0.089-0.238-0.089-0.238-0.197-0.467-0.033-0.070-0.033-0.070-0.033-0.17-0.017-0.008-0.033-0.017-0.050-0.025-0.020-0.055-0.020-0.055-0.037-0.123-0.025-0.099-0.025-0.099-0.088-0.177-0.011-0.040-0.022-0.079-0.033-0.119-0.030-0.096-0.071-0.186-0.11-0.278-0.030-0.073-0.057-0.146-0.084-0.22-0.029-0.081-0.059-0.16-0.095-0.238-0.056-0.122-0.102-0.248-0.148-0.374-0.030-0.081-0.061-0.161-0.097-0.24-0.033-0.081-0.033-0.081-0.033-0.181-0.025-0.008-0.050-0.017-0.075-0.025-0.019-0.054-0.019-0.054-0.034-0.123-0.030-0.122-0.072-0.224-0.133-0.334-0.027-0.057-0.047-0.11-0.066-0.169-0.044-0.138-0.1-0.27-0.155-0.404-0.020-0.048-0.040-0.096-0.059-0.144-0.009-0.021-0.018-0.042-0.027-0.064-0.058-0.14-0.111-0.282-0.164-0.425-0.008-0.021-0.016-0.043-0.024-0.064-0.011-0.031-0.011-0.031-0.023-0.062-0.007-0.019-0.014-0.037-0.021-0.056-0.018-0.053-0.018-0.053-0.031-0.106-0.011-0.051-0.011-0.051-0.048-0.107-0.041-0.070-0.065-0.135-0.089-0.212-0.046-0.142-0.097-0.274-0.166-0.406-0.034-0.072-0.034-0.072-0.045-0.131-0.014-0.064-0.034-0.108-0.064-0.166-0.040-0.076-0.060-0.14-0.075-0.225-0.024-0.059-0.049-0.117-0.075-0.175-0.037-0.089-0.070-0.179-0.104-0.269-0.023-0.061-0.048-0.121-0.073-0.181-0.043-0.107-0.073-0.212-0.098-0.325-0.017 0-0.033 0-0.050 0-0.011-0.037-0.011-0.037-0.021-0.074-0.009-0.032-0.018-0.064-0.027-0.096s-0.018-0.063-0.027-0.096c-0.015-0.053-0.032-0.106-0.049-0.159-0.017-0.008-0.033-0.017-0.050-0.025-0.020-0.048-0.020-0.048-0.037-0.108-0.018-0.059-0.035-0.113-0.063-0.167-0.035-0.073-0.044-0.148-0.057-0.227-0.005-0.016-0.011-0.032-0.017-0.048-0.025-0.008-0.050-0.017-0.075-0.025 0.008-0.025 0.017-0.049 0.025-0.075-0.017-0.008-0.033-0.017-0.050-0.025-0.011-0.040-0.023-0.079-0.033-0.119-0.028-0.093-0.068-0.18-0.106-0.27-0.048-0.116-0.091-0.235-0.134-0.353-0.028-0.077-0.056-0.14-0.101-0.209-0.018-0.050-0.034-0.1-0.050-0.15-0.021-0.056-0.041-0.113-0.063-0.169-0.011-0.028-0.021-0.056-0.032-0.085-0.026-0.073-0.026-0.073-0.081-0.121-0.017-0.058-0.034-0.116-0.050-0.175-0.017-0.034-0.033-0.067-0.050-0.1-0.012-0.036-0.024-0.073-0.036-0.11-0.022-0.069-0.046-0.128-0.078-0.194s-0.051-0.125-0.069-0.194c-0.030-0.096-0.072-0.187-0.111-0.279-0.025-0.060-0.049-0.12-0.072-0.181-0.027-0.074-0.057-0.145-0.089-0.218-0.087-0.209-0.168-0.428-0.22-0.649-0.017 0-0.033 0-0.050 0-0.006-0.019-0.012-0.038-0.018-0.057-0.049-0.15-0.101-0.296-0.163-0.442-0.018-0.052-0.018-0.052-0.018-0.127-0.017-0.008-0.033-0.017-0.050-0.025-0.010-0.058-0.019-0.116-0.025-0.175-0.017 0-0.033 0-0.050 0-0.002-0.017-0.005-0.033-0.008-0.050-0.014-0.062-0.032-0.115-0.055-0.174-0.033-0.083-0.052-0.162-0.063-0.252-0.017 0-0.033 0-0.050 0-0.003-0.019-0.006-0.038-0.009-0.058-0.012-0.072-0.012-0.072-0.066-0.142-0.003-0.067-0.003-0.067 0-0.125-0.017-0.008-0.033-0.017-0.050-0.025-0.020-0.048-0.020-0.048-0.037-0.108-0.024-0.077-0.051-0.146-0.088-0.217-0.011-0.034-0.011-0.034-0.022-0.069-0.022-0.064-0.045-0.116-0.076-0.175-0.048-0.093-0.077-0.186-0.106-0.287-0.051-0.168-0.114-0.334-0.195-0.491-0.053-0.105-0.094-0.214-0.132-0.326-0.007-0.019-0.013-0.038-0.020-0.057-0.048-0.139-0.048-0.139-0.048-0.196-0.016-0.008-0.033-0.017-0.050-0.025-0.025-0.047-0.025-0.047-0.050-0.106-0.009-0.021-0.018-0.041-0.027-0.062-0.012-0.028-0.012-0.028-0.024-0.056-0.009-0.020-0.018-0.040-0.027-0.061-0.022-0.059-0.039-0.119-0.056-0.18-0.035-0.117-0.081-0.223-0.133-0.333-0.040-0.088-0.076-0.176-0.111-0.265-0.010-0.024-0.010-0.024-0.019-0.049-0.027-0.069-0.054-0.139-0.082-0.208-0.050-0.129-0.108-0.25-0.176-0.371-0.026-0.071-0.017-0.111 0.004-0.183-0.016 0-0.033 0-0.050 0-0.006-0.018-0.013-0.036-0.019-0.054-0.057-0.159-0.057-0.159-0.122-0.315-0.026-0.061-0.044-0.115-0.061-0.178-0.008-0.026-0.016-0.052-0.024-0.078-0.016-0.008-0.033-0.017-0.050-0.025-0.009-0.041-0.017-0.083-0.025-0.125-0.022-0.066-0.046-0.13-0.070-0.195-0.010-0.027-0.010-0.027-0.021-0.054-0.039-0.103-0.082-0.2-0.134-0.297-0.049-0.103-0.083-0.211-0.121-0.319-0.024-0.068-0.048-0.134-0.074-0.201-0.030-0.083-0.030-0.083-0.030-0.158-0.016 0-0.033 0-0.050 0-0.004-0.016-0.008-0.032-0.011-0.049-0.042-0.171-0.104-0.322-0.181-0.48-0.040-0.088-0.058-0.15-0.058-0.246-0.016-0.008-0.033-0.017-0.050-0.025-0.019-0.056-0.019-0.056-0.037-0.123-0.025-0.099-0.025-0.099-0.088-0.177-0.009-0.041-0.017-0.083-0.025-0.125-0.018-0.051-0.037-0.101-0.056-0.152-0.017-0.043-0.017-0.043-0.034-0.086-0.043-0.106-0.087-0.212-0.132-0.317-0.033-0.082-0.059-0.165-0.086-0.249-0.016-0.051-0.016-0.051-0.061-0.102-0.031-0.044-0.031-0.044-0.024-0.112 0.006-0.019 0.011-0.037 0.017-0.056-0.016 0-0.033 0-0.050 0-0.010-0.026-0.019-0.053-0.029-0.080-0.063-0.169-0.125-0.336-0.201-0.5-0.028-0.064-0.048-0.129-0.070-0.195-0.013-0.025-0.025-0.051-0.037-0.077-0.039-0.087-0.051-0.173-0.065-0.267-0.004-0.029-0.008-0.059-0.013-0.089-0.003-0.022-0.006-0.045-0.010-0.067-0.020-0-0.040-0.001-0.061-0.001-0.896-0.018-0.896-0.018-1.189-0.174-0.034-0.017-0.034-0.017-0.069-0.035-0.060-0.030-0.12-0.060-0.181-0.090 0-0.016 0-0.033 0-0.050-0.015-0.007-0.030-0.013-0.045-0.021-0.055-0.029-0.090-0.057-0.13-0.104 0-0.016 0-0.033 0-0.050-0.025-0.008-0.050-0.016-0.075-0.025 0-0.033 0-0.066 0-0.1-0.017 0-0.033 0-0.050 0-0.087-0.195-0.155-0.376-0.17-0.591-0.004-0.059-0.004-0.059-0.020-0.117-0.014-0.090-0.001-0.173 0.013-0.263 0.002-0.017 0.005-0.035 0.007-0.053 0.006-0.042 0.013-0.085 0.019-0.127 0.017 0 0.033 0 0.050 0 0-0.016 0-0.033 0-0.050-0.017-0.008-0.033-0.016-0.050-0.025 0.017-0.008 0.033-0.017 0.050-0.025 0.026-0.050 0.050-0.1 0.075-0.15 0.135-0.216 0.307-0.391 0.49-0.566 0.031-0.030 0.062-0.062 0.092-0.093 0.043-0.041 0.043-0.041 0.092-0.052 0.080-0.022 0.12-0.080 0.176-0.139 0.069-0.059 0.114-0.096 0.2-0.125 0.015-0.015 0.031-0.031 0.047-0.047 0.081-0.081 0.177-0.127 0.278-0.178 0.021-0.014 0.042-0.027 0.064-0.041 0.061-0.034 0.061-0.034 0.136-0.034 0-0.017 0-0.033 0-0.050 0.077-0.054 0.157-0.089 0.244-0.124 0.106-0.049 0.207-0.108 0.309-0.165 0.072-0.035 0.072-0.035 0.147-0.035 0-0.017 0-0.033 0-0.050 0.029-0.010 0.029-0.010 0.058-0.020 0.025-0.009 0.050-0.018 0.075-0.027s0.049-0.017 0.075-0.026c0.071-0.026 0.071-0.026 0.143-0.077 0.025 0 0.050 0 0.075 0 0.008-0.016 0.016-0.033 0.025-0.050 0.156-0.075 0.156-0.075 0.25-0.075 0.005-0.016 0.010-0.031 0.016-0.047 0.049-0.075 0.099-0.082 0.184-0.103 0.025 0 0.050 0 0.075 0 0.013-0.012 0.027-0.024 0.040-0.036 0.089-0.058 0.181-0.058 0.285-0.064 0-0.016 0-0.033 0-0.050 0.129-0.081 0.129-0.081 0.175-0.1 0.025 0.008 0.050 0.016 0.075 0.025 0.016-0.008 0.033-0.016 0.050-0.025 0.016 0.008 0.033 0.016 0.050 0.025 0.008-0.016 0.016-0.033 0.025-0.050 0.041 0 0.082 0 0.125 0 0.016-0.033 0.033-0.066 0.050-0.1 0.025 0.008 0.050 0.016 0.075 0.025 0.016-0.012 0.032-0.025 0.048-0.038 0.051-0.038 0.051-0.038 0.108-0.030 0.014 0.006 0.029 0.011 0.044 0.017 0.008-0.016 0.016-0.033 0.025-0.050 0.072-0.034 0.119-0.050 0.2-0.050 0.024-0.006 0.024-0.006 0.048-0.012 0.051-0.012 0.051-0.012 0.152-0.012 0-0.016 0-0.033 0-0.050 0.074-0.016 0.149-0.033 0.225-0.050 0-0.008 0-0.016 0-0.025 0.066-0.008 0.132-0.016 0.2-0.025 0-0.008 0-0.016 0-0.025 0.018-0.003 0.037-0.006 0.056-0.009 0.024-0.004 0.049-0.008 0.074-0.013 0.024-0.004 0.048-0.008 0.073-0.012 0.070-0.015 0.131-0.038 0.197-0.066 0.035-0.009 0.069-0.017 0.105-0.025 0.095-0.016 0.095-0.016 0.145-0.075 0.008 0.016 0.017 0.033 0.025 0.050 0.025-0.025 0.025-0.025 0.050-0.050 0.078-0.003 0.078-0.003 0.15 0 0.008-0.016 0.017-0.033 0.025-0.050 0.008 0.008 0.017 0.016 0.025 0.025 0-0.008 0-0.016 0-0.025 0.116-0.008 0.231-0.016 0.35-0.025 0-0.016 0-0.033 0-0.050 0.063-0.012 0.127-0.024 0.191-0.036 0.018-0.003 0.036-0.007 0.054-0.010 0.102-0.019 0.204-0.037 0.306-0.054 0-0.008 0-0.016 0-0.025 0.149-0.012 0.149-0.012 0.3-0.025 0-0.008 0-0.016 0-0.025 0.124-0.017 0.248-0.033 0.375-0.050 0-0.008 0-0.017 0-0.025 0.023-0.002 0.046-0.003 0.070-0.005 0.030-0.002 0.060-0.004 0.091-0.006 0.045-0.003 0.045-0.003 0.091-0.006 0.070 0 0.070 0 0.098-0.033 0.053-0.010 0.106-0.018 0.159-0.025 0.084-0.012 0.16-0.023 0.241-0.050 0.060-0.006 0.12-0.010 0.18-0.014 0.047-0.003 0.047-0.003 0.096-0.006 0.024-0.002 0.049-0.003 0.074-0.005 0-0.008 0-0.017 0-0.025 0.026-0.002 0.026-0.002 0.052-0.005 0.149-0.013 0.299-0.028 0.448-0.045 0-0.008 0-0.017 0-0.025 0.032-0.001 0.065-0.002 0.098-0.003 0.253-0.009 0.499-0.027 0.749-0.072 0.094-0.017 0.183-0.030 0.278-0.025 0-0.008 0-0.017 0-0.025 0.028-0.001 0.056-0.001 0.085-0.002 0.105-0.002 0.21-0.005 0.315-0.007 0.046-0.001 0.091-0.002 0.136-0.003 0.065-0.002 0.13-0.003 0.196-0.005 0.020-0 0.040-0.001 0.061-0.001 0.103-0.002 0.103-0.002 0.204-0.019 0.065-0.015 0.124-0.015 0.191-0.015zM29.25 4.625c0.025 0.050 0.025 0.050 0.025 0.050zM27.325 5.775c0.025 0.050 0.025 0.050 0.025 0.050zM26.8 7.175c0.025 0.050 0.025 0.050 0.025 0.050zM26.175 8.675c0 0.025 0 0.050 0 0.075 0.025-0.008 0.049-0.017 0.075-0.025 0-0.017 0-0.033 0-0.050-0.025 0-0.049 0-0.075 0zM25.525 10.275c0.025 0.1 0.025 0.1 0.025 0.1zM25.55 10.375c0.025 0.075 0.025 0.075 0.025 0.075zM25.475 10.525c0.025 0.075 0.025 0.075 0.025 0.075zM25.225 11.15c0 0.058 0 0.116 0 0.175 0.008 0 0.017 0 0.025 0 0.008-0.058 0.017-0.116 0.025-0.175-0.017 0-0.033 0-0.050 0zM24.4 13.275c0.025 0.050 0.025 0.050 0.025 0.050zM23.9 14.55c0.025 0.050 0.025 0.050 0.025 0.050zM23.85 14.65c0.025 0.050 0.025 0.050 0.025 0.050zM23.775 14.725c0.008 0.025 0.017 0.050 0.025 0.075 0.008-0.025 0.017-0.050 0.025-0.075-0.017 0-0.033 0-0.050 0zM22.025 19.3c0.025 0.050 0.025 0.050 0.025 0.050zM21.85 19.775c0 0.041 0 0.082 0 0.125 0.017-0.033 0.033-0.066 0.050-0.1-0.017-0.008-0.033-0.017-0.050-0.025zM21.65 20.275c0 0.041 0 0.082 0 0.125 0.008 0 0.017 0 0.025 0 0-0.041 0-0.082 0-0.125-0.008 0-0.017 0-0.025 0zM21.525 20.6c0.025 0.050 0.025 0.050 0.025 0.050zM21.475 20.725c0.025 0.050 0.025 0.050 0.025 0.050zM21.45 20.775c0.025 0.1 0.025 0.1 0.025 0.1zM21.425 20.875c0.025 0.050 0.025 0.050 0.025 0.050zM21.25 21.25c0.008 0.025 0.017 0.049 0.025 0.075 0.008-0.025 0.017-0.049 0.025-0.075-0.017 0-0.033 0-0.050 0zM21.125 21.575c0.025 0.075 0.025 0.075 0.025 0.075zM21.050 21.75c0 0.049 0 0.099 0 0.15 0.008 0 0.017 0 0.025 0 0-0.049 0-0.099 0-0.15-0.008 0-0.017 0-0.025 0zM21 21.925c0.025 0.075 0.025 0.075 0.025 0.075zM20.925 22.125c0.025 0.1 0.025 0.1 0.025 0.1zM20.875 22.275c0.025 0.050 0.025 0.050 0.025 0.050zM20.8 22.45c0.025 0.1 0.025 0.1 0.025 0.1zM20.75 22.575c0.025 0.050 0.025 0.050 0.025 0.050zM20.1 24.175c0 0.058 0 0.116 0 0.175 0.008 0 0.017 0 0.025 0 0-0.058 0-0.116 0-0.175-0.008 0-0.017 0-0.025 0zM19.975 24.575c0.025 0.075 0.025 0.075 0.025 0.075zM19.85 24.85c0.008 0.033 0.017 0.066 0.025 0.1 0.008-0.033 0.017-0.066 0.025-0.1-0.017 0-0.033 0-0.050 0zM19.6 25.525c-0.008 0.017-0.017 0.033-0.025 0.050 0.017 0 0.033 0 0.050 0-0.008-0.017-0.017-0.033-0.025-0.050zM16.725 31.625c0.025 0.050 0.025 0.050 0.025 0.050z"></path>
<path fill="#f18f0f" style="fill: var(--color2, #f18f0f)" d="M14.464-0.003c0.042 0 0.042 0 0.085-0 0.031 0 0.062 0 0.093 0 0.049-0 0.049-0 0.098-0 0.089 0 0.178 0 0.268 0 0.093 0 0.187 0 0.28 0 0.157 0 0.313 0 0.47 0 0.181 0 0.362 0 0.544-0 0.155 0 0.311 0 0.466 0 0.093 0 0.186 0 0.279 0 0.104 0 0.207 0 0.311 0 0.046-0 0.046-0 0.093-0 0.028 0 0.056 0 0.085 0 0.037 0 0.037 0 0.074 0 0.059 0.003 0.108 0.013 0.165 0.028 0.061 0.003 0.122 0.005 0.184 0.006 0.037 0.001 0.074 0.002 0.111 0.003 0.058 0.001 0.115 0.002 0.173 0.003 0.24 0.004 0.47 0.021 0.707 0.063 0.236 0.034 0.472 0.054 0.71 0.068 0.115 0.009 0.228 0.027 0.342 0.047 0.073 0.012 0.073 0.012 0.151 0.009 0.076 0.002 0.107 0.017 0.172 0.052 0.063 0.010 0.063 0.010 0.13 0.013 0.086 0.005 0.167 0.017 0.251 0.036 0.125 0.029 0.25 0.047 0.377 0.064 0.046 0.007 0.093 0.013 0.139 0.019 0.033 0.005 0.033 0.005 0.067 0.010 0.177 0.025 0.343 0.052 0.512 0.109 0.068 0.012 0.137 0.023 0.206 0.034 0.142 0.024 0.284 0.053 0.425 0.083 0.021 0.004 0.042 0.008 0.063 0.013 0.019 0.004 0.037 0.008 0.056 0.012 0.054 0.010 0.054 0.010 0.125 0.008 0 0.016 0 0.033 0 0.050 0.036 0.004 0.072 0.008 0.108 0.012 0.030 0.003 0.030 0.003 0.061 0.007 0.059 0.007 0.059 0.007 0.131 0.005 0.008 0.016 0.017 0.033 0.025 0.050 0.058 0.010 0.116 0.018 0.175 0.025 0.064 0.013 0.128 0.027 0.192 0.042 0.018 0.004 0.037 0.009 0.055 0.013 0.228 0.055 0.454 0.122 0.679 0.188 0.022 0.006 0.044 0.013 0.067 0.020 0.339 0.099 0.675 0.204 1.009 0.32 0.041 0.014 0.081 0.028 0.122 0.042 0.036 0.014 0.072 0.028 0.108 0.042 0.021 0.008 0.042 0.017 0.064 0.026s0.044 0.018 0.067 0.027c0.021 0.008 0.043 0.017 0.065 0.026 0.044 0.018 0.087 0.035 0.131 0.052 0.042 0.017 0.084 0.034 0.127 0.050 0.164 0.065 0.326 0.134 0.488 0.204 0.026 0.011 0.052 0.022 0.078 0.034 0.024 0.011 0.049 0.022 0.075 0.032 0.022 0.010 0.044 0.019 0.067 0.029 0.055 0.027 0.055 0.027 0.105 0.077 0.047 0.019 0.095 0.036 0.142 0.053 0.266 0.1 0.51 0.24 0.752 0.389 0.083 0.049 0.169 0.091 0.256 0.133 0 0.017 0 0.033 0 0.050 0.014 0.007 0.029 0.014 0.043 0.021 0.056 0.029 0.11 0.059 0.163 0.091 0.018 0.010 0.035 0.021 0.053 0.032 0.013 0.010 0.026 0.020 0.040 0.030 0 0.017 0 0.033 0 0.050 0.027 0.003 0.027 0.003 0.055 0.006 0.085 0.022 0.131 0.059 0.195 0.119 0 0.017 0 0.033 0 0.050 0.015 0.003 0.029 0.006 0.044 0.009 0.057 0.016 0.104 0.038 0.156 0.066 0 0.017 0 0.033 0 0.050 0.017 0 0.033 0 0.050 0 0 0.017 0 0.033 0 0.050 0.025 0.008 0.049 0.017 0.075 0.025 0.043 0.043 0.043 0.043 0.087 0.097 0.063 0.075 0.063 0.075 0.131 0.144 0.032 0.034 0.032 0.034 0.032 0.084 0.025 0.008 0.049 0.017 0.075 0.025 0.214 0.26 0.346 0.529 0.325 0.875-0.017 0.042-0.033 0.083-0.050 0.125-0.004 0.070-0.004 0.070 0 0.141 0.006 0.126 0.006 0.126-0.050 0.21-0.010 0.050-0.018 0.1-0.025 0.15-0.017 0-0.033 0-0.050 0-0.003 0.019-0.006 0.037-0.009 0.056-0.015 0.064-0.034 0.112-0.066 0.169-0.017 0-0.033 0-0.050 0-0.008 0.016-0.017 0.033-0.025 0.050-0.017-0.008-0.033-0.016-0.050-0.025-0.008 0.041-0.017 0.082-0.025 0.125-0.025-0.008-0.049-0.016-0.075-0.025-0.003 0.023-0.003 0.023-0.007 0.046-0.033 0.098-0.131 0.132-0.218 0.179-0.059 0.028-0.059 0.028-0.125 0.050-0.015 0.006-0.029 0.012-0.044 0.018-0.222 0.082-0.451 0.065-0.684 0.061-0.043-0-0.087-0-0.13-0.001-0.105-0.001-0.211-0.002-0.317-0.003-0.052-0.102-0.091-0.197-0.12-0.308-0.075-0.25-0.207-0.442-0.435-0.574-0.061-0.031-0.124-0.060-0.186-0.089-0.023-0.011-0.046-0.021-0.070-0.032-0.237-0.109-0.476-0.213-0.716-0.314-0.023-0.010-0.046-0.019-0.069-0.029-1.18-0.492-2.408-0.863-3.653-1.154-0.018-0.005-0.037-0.009-0.056-0.013-0.43-0.1-0.859-0.185-1.296-0.251-0.097-0.015-0.194-0.032-0.291-0.049-0.612-0.106-1.226-0.171-1.844-0.23-0.029-0.003-0.057-0.006-0.087-0.008-2.105-0.198-4.239-0.133-6.334 0.141-0.019 0.002-0.038 0.005-0.057 0.007-0.207 0.027-0.412 0.060-0.618 0.1-0.13 0.025-0.261 0.046-0.393 0.065-0.513 0.079-1.021 0.196-1.527 0.312-0.027 0.006-0.053 0.012-0.081 0.018-1.152 0.268-2.321 0.654-3.404 1.128-0.066 0.029-0.133 0.057-0.2 0.085-0.131 0.055-0.261 0.111-0.391 0.168-0.024 0.010-0.047 0.021-0.071 0.031-0.071 0.032-0.143 0.064-0.213 0.097-0.021 0.010-0.043 0.019-0.065 0.029-0.196 0.092-0.346 0.217-0.429 0.421-0.047 0.162-0.071 0.33-0.096 0.497-0.977-0.017-0.977-0.017-1.275-0.175-0.034-0.017-0.034-0.017-0.069-0.035-0.060-0.030-0.12-0.060-0.181-0.090 0-0.016 0-0.033 0-0.050-0.015-0.007-0.030-0.013-0.045-0.021-0.055-0.029-0.090-0.057-0.13-0.104 0-0.016 0-0.033 0-0.050-0.025-0.008-0.050-0.016-0.075-0.025 0-0.033 0-0.066 0-0.1-0.017 0-0.033 0-0.050 0-0.087-0.195-0.155-0.376-0.17-0.591-0.004-0.059-0.004-0.059-0.020-0.117-0.014-0.090-0.001-0.173 0.013-0.263 0.002-0.017 0.005-0.035 0.007-0.053 0.006-0.042 0.013-0.085 0.019-0.127 0.017 0 0.033 0 0.050 0 0-0.016 0-0.033 0-0.050-0.017-0.008-0.033-0.016-0.050-0.025 0.017-0.008 0.033-0.017 0.050-0.025 0.026-0.050 0.050-0.1 0.075-0.15 0.135-0.216 0.307-0.391 0.49-0.566 0.031-0.030 0.062-0.062 0.092-0.093 0.043-0.041 0.043-0.041 0.092-0.052 0.080-0.022 0.12-0.080 0.176-0.139 0.069-0.059 0.114-0.096 0.2-0.125 0.015-0.015 0.031-0.031 0.047-0.047 0.081-0.081 0.177-0.127 0.278-0.178 0.021-0.014 0.042-0.027 0.064-0.041 0.061-0.034 0.061-0.034 0.136-0.034 0-0.017 0-0.033 0-0.050 0.077-0.054 0.157-0.089 0.244-0.124 0.106-0.049 0.207-0.108 0.309-0.165 0.072-0.035 0.072-0.035 0.147-0.035 0-0.017 0-0.033 0-0.050 0.029-0.010 0.029-0.010 0.058-0.020 0.025-0.009 0.050-0.018 0.075-0.027s0.049-0.017 0.075-0.026c0.071-0.026 0.071-0.026 0.143-0.077 0.025 0 0.050 0 0.075 0 0.008-0.016 0.016-0.033 0.025-0.050 0.156-0.075 0.156-0.075 0.25-0.075 0.005-0.016 0.010-0.031 0.016-0.047 0.049-0.075 0.099-0.082 0.184-0.103 0.025 0 0.050 0 0.075 0 0.013-0.012 0.027-0.024 0.040-0.036 0.089-0.058 0.181-0.058 0.284-0.064 0-0.016 0-0.033 0-0.050 0.129-0.081 0.129-0.081 0.175-0.1 0.025 0.008 0.050 0.016 0.075 0.025 0.016-0.008 0.033-0.016 0.050-0.025 0.016 0.008 0.033 0.016 0.050 0.025 0.008-0.016 0.016-0.033 0.025-0.050 0.041 0 0.082 0 0.125 0 0.016-0.033 0.033-0.066 0.050-0.1 0.025 0.008 0.050 0.016 0.075 0.025 0.016-0.012 0.032-0.025 0.048-0.038 0.051-0.038 0.051-0.038 0.108-0.030 0.014 0.006 0.029 0.011 0.044 0.017 0.008-0.016 0.016-0.033 0.025-0.050 0.072-0.034 0.119-0.050 0.2-0.050 0.024-0.006 0.024-0.006 0.048-0.012 0.051-0.012 0.051-0.012 0.152-0.012 0-0.016 0-0.033 0-0.050 0.074-0.016 0.149-0.033 0.225-0.050 0-0.008 0-0.016 0-0.025 0.066-0.008 0.132-0.016 0.2-0.025 0-0.008 0-0.016 0-0.025 0.018-0.003 0.037-0.006 0.056-0.009 0.024-0.004 0.049-0.008 0.074-0.013 0.024-0.004 0.048-0.008 0.073-0.012 0.070-0.015 0.131-0.038 0.197-0.066 0.035-0.009 0.069-0.017 0.105-0.025 0.095-0.016 0.095-0.016 0.145-0.075 0.008 0.016 0.017 0.033 0.025 0.050 0.025-0.025 0.025-0.025 0.050-0.050 0.078-0.003 0.078-0.003 0.15 0 0.008-0.016 0.017-0.033 0.025-0.050 0.008 0.008 0.017 0.016 0.025 0.025 0-0.008 0-0.016 0-0.025 0.116-0.008 0.231-0.016 0.35-0.025 0-0.016 0-0.033 0-0.050 0.063-0.012 0.127-0.024 0.191-0.036 0.018-0.003 0.036-0.007 0.054-0.010 0.102-0.019 0.204-0.037 0.306-0.054 0-0.008 0-0.016 0-0.025 0.149-0.012 0.149-0.012 0.3-0.025 0-0.008 0-0.016 0-0.025 0.124-0.017 0.248-0.033 0.375-0.050 0-0.008 0-0.017 0-0.025 0.023-0.002 0.046-0.003 0.070-0.005 0.030-0.002 0.060-0.004 0.091-0.006 0.045-0.003 0.045-0.003 0.091-0.006 0.070 0 0.070 0 0.098-0.033 0.053-0.010 0.106-0.018 0.159-0.025 0.084-0.012 0.16-0.023 0.241-0.050 0.060-0.006 0.12-0.010 0.18-0.014 0.047-0.003 0.047-0.003 0.096-0.006 0.024-0.002 0.049-0.003 0.074-0.005 0-0.008 0-0.017 0-0.025 0.026-0.002 0.026-0.002 0.052-0.005 0.149-0.013 0.299-0.028 0.448-0.045 0-0.008 0-0.017 0-0.025 0.032-0.001 0.065-0.002 0.098-0.003 0.253-0.009 0.499-0.027 0.749-0.072 0.094-0.017 0.183-0.030 0.278-0.025 0-0.008 0-0.017 0-0.025 0.028-0.001 0.056-0.001 0.085-0.002 0.105-0.002 0.21-0.005 0.315-0.007 0.046-0.001 0.091-0.002 0.136-0.003 0.065-0.002 0.13-0.003 0.196-0.005 0.020-0 0.040-0.001 0.061-0.001 0.103-0.002 0.103-0.002 0.204-0.019 0.065-0.015 0.124-0.015 0.191-0.015zM29.25 4.625c0.025 0.050 0.025 0.050 0.025 0.050z"></path>
<path fill="#bb1e30" style="fill: var(--color3, #bb1e30)" d="M15.948 3.952c0.016 0.008 0.031 0.017 0.047 0.025 0.111 0.060 0.216 0.122 0.291 0.225 0.047 0.060 0.097 0.086 0.163 0.123 0.099 0.071 0.174 0.154 0.253 0.246 0.133 0.159 0.133 0.159 0.297 0.279 0.075 0.136 0.075 0.136 0.075 0.2 0.025 0.008 0.049 0.016 0.075 0.025 0.090 0.112 0.155 0.228 0.217 0.357 0.022 0.045 0.045 0.089 0.069 0.133 0.262 0.484 0.345 1.028 0.347 1.571 0 0.032 0 0.063 0 0.096-0.004 0.489-0.004 0.489-0.083 0.568-0.004 0.047-0.004 0.047-0.008 0.095-0.015 0.15-0.062 0.287-0.11 0.43-0.008 0.026-0.017 0.051-0.025 0.078-0.047 0.141-0.102 0.271-0.177 0.399-0.029 0.049-0.054 0.098-0.078 0.149-0.033 0-0.066 0-0.1 0 0.003 0.027 0.003 0.027 0.006 0.054-0.009 0.095-0.046 0.132-0.108 0.204-0.021 0.024-0.041 0.048-0.063 0.073-0.020 0.023-0.040 0.046-0.061 0.069-0.014 0.017-0.029 0.034-0.043 0.052-0.043 0.050-0.087 0.1-0.132 0.148-0.020 0.023-0.041 0.045-0.063 0.069-0.531 0.564-1.251 0.897-2.012 1.006-0.031 0.005-0.062 0.009-0.094 0.014-0.552 0.066-1.108-0.009-1.632-0.189-0.046-0.016-0.046-0.016-0.094-0.032-0.487-0.179-0.945-0.498-1.306-0.868-0.013-0.012-0.026-0.025-0.039-0.037-0.577-0.555-0.898-1.46-0.915-2.25-0.005-0.704 0.131-1.405 0.504-2.013 0.015-0.024 0.029-0.048 0.044-0.073 0.124-0.196 0.27-0.362 0.431-0.527 0.014-0.015 0.028-0.029 0.043-0.045 0.043-0.045 0.087-0.090 0.131-0.135 0.014-0.014 0.027-0.028 0.041-0.043 0.068-0.069 0.115-0.109 0.21-0.128 0-0.016 0-0.033 0-0.050 0.456-0.399 1.034-0.607 1.625-0.7 0.026-0.005 0.051-0.009 0.078-0.014 0.777-0.087 1.507 0.054 2.196 0.416z"></path>
<path fill="#bb1e30" style="fill: var(--color3, #bb1e30)" d="M22.328 7.966c0.032-0 0.032-0 0.065-0.001 0.348 0.003 0.681 0.098 1.007 0.212 0.026 0.009 0.026 0.009 0.053 0.018 0.272 0.095 0.52 0.2 0.747 0.38 0.023 0.018 0.023 0.018 0.047 0.037 0.195 0.157 0.375 0.329 0.55 0.509 0.057 0.059 0.11 0.108 0.178 0.153 0.008 0.025 0.016 0.050 0.025 0.075 0.025 0.016 0.049 0.033 0.075 0.050 0.023 0.047 0.047 0.094 0.069 0.142 0.033 0.063 0.072 0.117 0.113 0.174 0.195 0.275 0.329 0.544 0.281 0.89-0.021 0.107-0.066 0.198-0.114 0.295-0.046 0.1-0.084 0.191-0.1 0.3-0.017 0-0.033 0-0.050 0 0.001 0.018 0.002 0.036 0.003 0.055-0.005 0.109-0.043 0.18-0.103 0.271-0.014 0.037-0.026 0.075-0.038 0.113-0.023 0.075-0.043 0.121-0.087 0.188-0.009 0.050-0.017 0.1-0.025 0.15-0.028 0.065-0.061 0.116-0.1 0.175-0.015 0.051-0.025 0.102-0.036 0.154-0.014 0.046-0.014 0.046-0.064 0.096-0.014 0.039-0.025 0.078-0.036 0.117-0.030 0.107-0.069 0.206-0.114 0.308-0.012 0.031-0.024 0.063-0.036 0.095-0.044 0.119-0.091 0.237-0.139 0.355-0.017 0-0.033 0-0.050 0-0.005 0.039-0.005 0.039-0.009 0.078-0.014 0.088-0.035 0.164-0.066 0.247-0.017 0-0.033 0-0.050 0 0.001 0.018 0.002 0.035 0.003 0.053-0.005 0.116-0.039 0.201-0.103 0.297-0.017 0.033-0.034 0.066-0.050 0.1-0.009 0.016-0.017 0.033-0.025 0.050-0.017 0-0.033 0-0.050 0 0 0.057 0 0.116 0 0.175-0.017 0-0.033 0-0.050 0-0.004 0.018-0.007 0.037-0.011 0.056-0.024 0.118-0.060 0.211-0.114 0.319-0.025 0-0.050 0-0.075 0-0.009 0.025-0.017 0.050-0.025 0.075-0.066 0.031-0.131 0.052-0.2 0.075 0 0.017 0 0.033 0 0.050-0.565 0.188-0.565 0.188-0.799 0.218-0.053 0.005-0.053 0.005-0.101 0.032-0.071 0.003-0.141 0.004-0.212 0.004-0.021 0-0.042 0-0.064 0-0.045 0-0.090 0-0.134 0-0.068 0-0.137 0.001-0.205 0.001-0.044 0-0.087 0-0.131 0-0.020 0-0.041 0-0.061 0.001-0.123-0.001-0.224-0.018-0.342-0.056-0.057-0.007-0.114-0.014-0.172-0.019-0.425-0.054-0.806-0.243-1.149-0.494-0.057-0.041-0.057-0.041-0.138-0.076-0.066-0.036-0.066-0.036-0.111-0.108-0.065-0.094-0.128-0.122-0.227-0.173-0.070-0.040-0.107-0.090-0.152-0.155-0.019-0.018-0.037-0.036-0.056-0.055-0.175-0.18-0.314-0.382-0.444-0.595-0.009-0.015-0.019-0.030-0.029-0.046-0.082-0.135-0.138-0.283-0.196-0.429-0.009-0.021-0.017-0.042-0.026-0.063-0.158-0.405-0.219-0.805-0.224-1.237-0.001-0.034-0.002-0.068-0.003-0.101-0.017-0.868 0.317-1.668 0.878-2.323 0.020-0.026 0.020-0.026 0.041-0.052 0.12-0.145 0.261-0.258 0.409-0.373 0.017-0.015 0.035-0.030 0.053-0.046 0.158-0.132 0.321-0.228 0.506-0.318 0.029-0.014 0.057-0.028 0.087-0.042 0.561-0.269 1.085-0.371 1.707-0.378zM25.475 10.525c0.025 0.075 0.025 0.075 0.025 0.075zM25.225 11.15c0 0.058 0 0.116 0 0.175 0.008 0 0.017 0 0.025 0 0.008-0.058 0.017-0.116 0.025-0.175-0.017 0-0.033 0-0.050 0zM24.4 13.275c0.025 0.050 0.025 0.050 0.025 0.050zM23.9 14.55c0.025 0.050 0.025 0.050 0.025 0.050z"></path>
<path fill="#bb1e2f" style="fill: var(--color4, #bb1e2f)" d="M13.677 14.881c0.054 0.047 0.083 0.083 0.123 0.144 0.019 0.011 0.038 0.023 0.057 0.034 0.078 0.047 0.134 0.103 0.197 0.169 0.077 0.084 0.077 0.084 0.171 0.147 0.020 0.033 0.039 0.066 0.056 0.1 0.118 0.219 0.118 0.219 0.278 0.405 0.083 0.088 0.135 0.181 0.191 0.288 0.016 0.032 0.016 0.032 0.033 0.064 0.101 0.2 0.167 0.401 0.217 0.618 0.004 0.017 0.008 0.034 0.012 0.051 0.115 0.509 0.152 1.087 0.038 1.599-0.004 0.017-0.008 0.035-0.012 0.053-0.082 0.36-0.2 0.702-0.388 1.021-0.008 0.017-0.017 0.033-0.025 0.050-0.033 0-0.066 0-0.1 0 0 0.025 0 0.049 0 0.075-0.017 0-0.033 0-0.050 0 0.005 0.025 0.005 0.025 0.009 0.051-0.015 0.115-0.088 0.177-0.164 0.26-0.029 0.032-0.058 0.064-0.087 0.097-0.021 0.023-0.021 0.023-0.043 0.047-0.037 0.041-0.071 0.082-0.105 0.125-0.098 0.115-0.216 0.202-0.335 0.295-0.025 0.020-0.050 0.039-0.075 0.059-0.371 0.287-0.795 0.478-1.25 0.591-0.043 0.011-0.043 0.011-0.086 0.022-0.255 0.062-0.496 0.083-0.758 0.083-0.027 0-0.053 0-0.081 0-0.189-0.002-0.365-0.019-0.551-0.055-0.047-0.006-0.094-0.012-0.141-0.017-0.029-0.003-0.029-0.003-0.059-0.006-0.056-0.004-0.056-0.004-0.126 0.024 0-0.025 0-0.049 0-0.075-0.017-0.008-0.033-0.017-0.050-0.025-0.020-0.048-0.020-0.048-0.037-0.108s-0.035-0.113-0.063-0.167c-0.035-0.073-0.044-0.148-0.057-0.227-0.008-0.024-0.008-0.024-0.017-0.048-0.025-0.008-0.050-0.017-0.075-0.025 0.008-0.025 0.017-0.049 0.025-0.075-0.017-0.008-0.033-0.017-0.050-0.025-0.011-0.040-0.023-0.079-0.033-0.119-0.028-0.093-0.068-0.18-0.106-0.27-0.048-0.117-0.091-0.235-0.134-0.354-0.028-0.077-0.056-0.14-0.101-0.209-0.018-0.050-0.034-0.1-0.050-0.15-0.021-0.056-0.041-0.113-0.063-0.169-0.016-0.042-0.016-0.042-0.032-0.085-0.026-0.073-0.026-0.073-0.081-0.121-0.017-0.058-0.034-0.116-0.050-0.175-0.017-0.033-0.033-0.067-0.050-0.1-0.013-0.036-0.024-0.073-0.036-0.109-0.022-0.069-0.046-0.129-0.078-0.194s-0.051-0.125-0.069-0.194c-0.030-0.096-0.072-0.187-0.111-0.279-0.025-0.060-0.049-0.12-0.072-0.181-0.027-0.074-0.057-0.146-0.089-0.218-0.087-0.209-0.168-0.428-0.22-0.649-0.017 0-0.033 0-0.050 0-0.006-0.019-0.012-0.038-0.018-0.057-0.049-0.15-0.101-0.297-0.163-0.442-0.018-0.052-0.018-0.052-0.018-0.127-0.017-0.008-0.033-0.017-0.050-0.025-0.010-0.058-0.019-0.116-0.025-0.175-0.017 0-0.033 0-0.050 0-0.013-0.16 0.004-0.267 0.1-0.4 0.011-0.015 0.021-0.030 0.032-0.045 0.021-0.030 0.043-0.059 0.064-0.089 0.033-0.044 0.033-0.044 0.069-0.11 0.032-0.053 0.062-0.092 0.11-0.131 0.017 0 0.033 0 0.050 0 0.008-0.021 0.008-0.021 0.015-0.042 0.047-0.080 0.114-0.132 0.184-0.19 0.014-0.012 0.029-0.024 0.044-0.037 0.030-0.024 0.059-0.049 0.089-0.073 0.037-0.030 0.073-0.060 0.109-0.090 0.409-0.337 0.848-0.518 1.358-0.644 0.018-0.005 0.036-0.009 0.055-0.014 0.947-0.227 2.094 0.018 2.847 0.645z"></path>
<path fill="#bb1e30" style="fill: var(--color3, #bb1e30)" d="M20.446 18.649c0.52-0.006 1.092 0.098 1.554 0.351 0.067 0.069 0.085 0.121 0.092 0.216 0.002 0.019 0.003 0.039 0.005 0.059 0.002 0.034 0.003 0.067 0.003 0.101-0.017 0-0.033 0-0.050 0-0.001 0.015-0.002 0.029-0.003 0.045-0.003 0.030-0.003 0.030-0.005 0.060-0.001 0.019-0.003 0.039-0.004 0.059-0.015 0.074-0.048 0.122-0.088 0.186-0.020 0.048-0.038 0.096-0.055 0.145-0.009 0.024-0.017 0.049-0.026 0.074-0.006 0.018-0.013 0.037-0.019 0.056-0.017 0-0.033 0-0.050 0 0 0.041 0 0.082 0 0.125-0.025-0.008-0.049-0.017-0.075-0.025 0.002 0.028 0.003 0.057 0.005 0.086 0 0.165-0.056 0.36-0.17 0.483-0.011 0.010-0.023 0.021-0.034 0.031 0.008 0.017 0.017 0.033 0.025 0.050-0.023 0.099-0.055 0.181-0.128 0.252-0.067 0.069-0.061 0.13-0.072 0.224-0.027 0.086-0.060 0.169-0.1 0.25-0.008 0-0.017 0-0.025 0-0.004 0.026-0.004 0.026-0.008 0.052-0.016 0.069-0.041 0.127-0.070 0.191-0.041 0.107-0.069 0.217-0.098 0.327-0.020 0.067-0.043 0.119-0.074 0.18-0.014 0.033-0.028 0.066-0.041 0.098-0.008 0.018-0.015 0.037-0.023 0.055s-0.015 0.038-0.023 0.057c-0.008 0.019-0.015 0.038-0.023 0.057-0.038 0.094-0.076 0.188-0.114 0.282-0.025-0.008-0.049-0.017-0.075-0.025 0.002 0.029 0.003 0.058 0.005 0.087 0 0.117-0.034 0.207-0.079 0.313-0.008 0.025-0.017 0.049-0.025 0.075-0.024 0.059-0.050 0.117-0.075 0.175-0.025-0.008-0.049-0.017-0.075-0.025 0.006 0.025 0.011 0.050 0.017 0.076 0.008 0.095-0 0.135-0.041 0.218-0.036 0.079-0.064 0.16-0.093 0.242-0.011 0.031-0.022 0.062-0.033 0.093-0.008 0.023-0.017 0.047-0.025 0.070-0.025-0.008-0.049-0.017-0.075-0.025 0.006 0.028 0.012 0.057 0.019 0.086 0.017 0.13-0.029 0.228-0.094 0.339-0.017 0.017-0.033 0.033-0.050 0.050-0.014 0.045-0.026 0.090-0.038 0.136-0.021 0.087-0.038 0.139-0.087 0.214-0.014 0.037-0.027 0.073-0.039 0.111-0.006 0.019-0.012 0.038-0.019 0.058-0.016 0.052-0.029 0.104-0.042 0.156-0.017 0-0.033 0-0.050 0-0.008 0.025-0.017 0.049-0.025 0.075-0.017 0.008-0.033 0.017-0.050 0.025-0.009 0.063-0.011 0.125-0.014 0.189-0.013 0.073-0.026 0.094-0.086 0.136-0.113 0.041-0.21 0.011-0.32-0.023-0.028-0.008-0.028-0.008-0.056-0.017-0.269-0.085-0.526-0.211-0.748-0.385 0-0.017 0-0.033 0-0.050-0.025 0-0.049 0-0.075 0-0.034-0.033-0.067-0.066-0.1-0.1-0.031-0.024-0.062-0.047-0.094-0.070-0.165-0.122-0.311-0.256-0.45-0.406-0.012-0.012-0.023-0.025-0.035-0.038-0.196-0.216-0.196-0.216-0.196-0.336-0.022-0.002-0.022-0.002-0.044-0.004-0.151-0.057-0.243-0.316-0.309-0.457-0.37-0.831-0.459-1.831-0.148-2.696 0.132-0.341 0.289-0.662 0.526-0.942 0.014-0.019 0.029-0.038 0.044-0.058 0.541-0.721 1.368-1.215 2.256-1.366 0.198-0.025 0.396-0.023 0.596-0.026zM22.025 19.3c0.025 0.050 0.025 0.050 0.025 0.050zM21.85 19.775c0 0.041 0 0.082 0 0.125 0.017-0.033 0.033-0.066 0.050-0.1-0.017-0.008-0.033-0.017-0.050-0.025zM21.65 20.275c0 0.041 0 0.082 0 0.125 0.008 0 0.017 0 0.025 0 0-0.041 0-0.082 0-0.125-0.008 0-0.017 0-0.025 0zM21.525 20.6c0.025 0.050 0.025 0.050 0.025 0.050zM21.475 20.725c0.025 0.050 0.025 0.050 0.025 0.050zM21.45 20.775c0.025 0.1 0.025 0.1 0.025 0.1zM21.425 20.875c0.025 0.050 0.025 0.050 0.025 0.050zM21.25 21.25c0.008 0.025 0.017 0.049 0.025 0.075 0.008-0.025 0.017-0.049 0.025-0.075-0.017 0-0.033 0-0.050 0zM21.125 21.575c0.025 0.075 0.025 0.075 0.025 0.075zM21.050 21.75c0 0.049 0 0.099 0 0.15 0.008 0 0.017 0 0.025 0 0-0.049 0-0.099 0-0.15-0.008 0-0.017 0-0.025 0zM21 21.925c0.025 0.075 0.025 0.075 0.025 0.075zM20.925 22.125c0.025 0.1 0.025 0.1 0.025 0.1zM20.875 22.275c0.025 0.050 0.025 0.050 0.025 0.050zM20.8 22.45c0.025 0.1 0.025 0.1 0.025 0.1zM20.75 22.575c0.025 0.050 0.025 0.050 0.025 0.050zM20.1 24.175c0 0.058 0 0.116 0 0.175 0.008 0 0.017 0 0.025 0 0-0.058 0-0.116 0-0.175-0.008 0-0.017 0-0.025 0zM19.975 24.575c0.025 0.075 0.025 0.075 0.025 0.075zM19.85 24.85c0.008 0.033 0.017 0.066 0.025 0.1 0.008-0.033 0.017-0.066 0.025-0.1-0.017 0-0.033 0-0.050 0zM19.6 25.525c-0.008 0.017-0.017 0.033-0.025 0.050 0.017 0 0.033 0 0.050 0-0.008-0.017-0.017-0.033-0.025-0.050z"></path>
<path fill="#bb1f2f" style="fill: var(--color5, #bb1f2f)" d="M14.025 24.35c0.016 0.008 0.031 0.015 0.048 0.023 0.255 0.124 0.48 0.277 0.702 0.452 0.020 0.015 0.040 0.031 0.060 0.047 0.25 0.206 0.421 0.479 0.585 0.754 0.027 0.046 0.056 0.091 0.084 0.137 0.209 0.348 0.335 0.713 0.41 1.111 0.007 0.034 0.015 0.067 0.024 0.1 0.052 0.195 0.048 0.395 0.048 0.595 0 0.020 0 0.039 0 0.059-0.001 0.323-0.035 0.614-0.136 0.922-0.011 0.036-0.022 0.072-0.033 0.108-0.050 0.163-0.109 0.318-0.193 0.467-0.011 0.021-0.021 0.041-0.033 0.063-0.168 0.318-0.368 0.581-0.617 0.837-0.020 0.021-0.040 0.043-0.061 0.064-0.121 0.125-0.25 0.232-0.389 0.336-0.008 0.008-0.017 0.017-0.025 0.025-0.1 0.007-0.165 0.003-0.25-0.050-0.102-0.132-0.151-0.293-0.201-0.451-0.036-0.11-0.080-0.217-0.124-0.325-0.017-0.042-0.034-0.083-0.050-0.125-0.025-0.062-0.049-0.123-0.074-0.185-0.088-0.22-0.174-0.441-0.256-0.663-0.015-0.040-0.015-0.040-0.030-0.080-0.020-0.053-0.040-0.106-0.059-0.16-0.088-0.238-0.088-0.238-0.197-0.467-0.033-0.070-0.033-0.070-0.033-0.17-0.017-0.008-0.033-0.017-0.050-0.025-0.020-0.055-0.020-0.055-0.037-0.123-0.025-0.099-0.025-0.099-0.088-0.177-0.011-0.040-0.022-0.079-0.033-0.119-0.030-0.096-0.071-0.186-0.11-0.278-0.030-0.073-0.057-0.146-0.084-0.22-0.029-0.081-0.059-0.16-0.095-0.238-0.056-0.122-0.102-0.248-0.148-0.374-0.030-0.081-0.061-0.161-0.097-0.24-0.033-0.081-0.033-0.081-0.033-0.181-0.037-0.012-0.037-0.012-0.075-0.025-0.019-0.054-0.019-0.054-0.034-0.123-0.030-0.122-0.072-0.224-0.133-0.334-0.027-0.057-0.047-0.11-0.066-0.169-0.044-0.137-0.1-0.27-0.155-0.404-0.020-0.048-0.040-0.096-0.059-0.144-0.013-0.031-0.013-0.031-0.026-0.064-0.137-0.334-0.137-0.334-0.1-0.461 0.694-0.26 1.585-0.034 2.225 0.275z"></path>
<path fill="#bb1f2f" style="fill: var(--color5, #bb1f2f)" d="M5.175 7.1c0.238-0.006 0.466 0.009 0.702 0.044 0.029 0.004 0.058 0.008 0.088 0.012 0.306 0.044 0.583 0.134 0.86 0.269 0.032 0.015 0.064 0.030 0.096 0.045 0.209 0.1 0.398 0.208 0.579 0.354 0.014 0.011 0.028 0.022 0.042 0.034 0.317 0.256 0.545 0.546 0.758 0.891 0.014 0.023 0.028 0.046 0.043 0.069 0.162 0.264 0.274 0.527 0.358 0.825 0.023 0.079 0.050 0.153 0.082 0.229 0.043 0.132 0.048 0.269 0.055 0.407 0.006 0.118 0.014 0.234 0.030 0.351 0.031 0.334-0.027 0.681-0.142 0.994-0.012 0.037-0.024 0.075-0.036 0.113-0.163 0.479-0.376 0.87-0.707 1.25-0.028 0.033-0.056 0.065-0.083 0.098-0.219 0.258-0.219 0.258-0.352 0.274-0.112-0.054-0.132-0.147-0.172-0.259-0.009-0.020-0.018-0.040-0.027-0.061-0.022-0.059-0.039-0.119-0.056-0.179-0.035-0.117-0.081-0.223-0.133-0.333-0.040-0.087-0.076-0.176-0.111-0.265-0.006-0.016-0.013-0.032-0.019-0.049-0.027-0.069-0.054-0.139-0.081-0.208-0.051-0.129-0.108-0.25-0.176-0.371-0.026-0.071-0.017-0.111 0.003-0.183-0.016 0-0.033 0-0.050 0-0.006-0.018-0.013-0.036-0.019-0.054-0.057-0.159-0.057-0.159-0.121-0.315-0.026-0.061-0.045-0.115-0.061-0.178-0.008-0.026-0.016-0.052-0.024-0.078-0.016-0.008-0.033-0.017-0.050-0.025-0.009-0.041-0.017-0.083-0.025-0.125-0.022-0.066-0.046-0.13-0.070-0.195-0.007-0.018-0.013-0.036-0.021-0.055-0.039-0.103-0.082-0.2-0.134-0.297-0.049-0.103-0.083-0.212-0.121-0.319-0.024-0.068-0.048-0.134-0.074-0.201-0.030-0.083-0.030-0.083-0.030-0.158-0.016 0-0.033 0-0.050 0-0.004-0.016-0.007-0.032-0.011-0.049-0.042-0.171-0.104-0.322-0.181-0.48-0.040-0.088-0.058-0.15-0.058-0.246-0.016-0.008-0.033-0.017-0.050-0.025-0.019-0.055-0.019-0.055-0.037-0.123-0.025-0.098-0.025-0.098-0.088-0.177-0.009-0.041-0.017-0.083-0.025-0.125-0.018-0.051-0.037-0.101-0.056-0.152-0.011-0.028-0.022-0.057-0.034-0.087-0.033-0.082-0.067-0.162-0.101-0.243-0.051-0.121-0.097-0.243-0.135-0.369-0.008-0.025-0.008-0.025-0.016-0.051-0.015-0.080 0.016-0.148 0.041-0.224z"></path>
<path fill="#d36638" style="fill: var(--color6, #d36638)" d="M17.425 20.25c0.025 0 0.049 0 0.075 0-0.032 0.088-0.073 0.164-0.123 0.244-0.121 0.197-0.202 0.402-0.276 0.622-0.009 0.028-0.019 0.055-0.029 0.084-0.064 0.199-0.099 0.392-0.123 0.601-0.017 0-0.033 0-0.050 0 0.004 0.014 0.008 0.027 0.012 0.041 0.015 0.068 0.015 0.129 0.014 0.199-0 0.026-0 0.053-0 0.081s-0.001 0.055-0.001 0.084c-0.001 0.055-0.001 0.11-0.002 0.165-0 0.037-0 0.037-0.001 0.074-0.004 0.055-0.004 0.055 0.027 0.081 0.006 0.036 0.011 0.073 0.015 0.11 0.054 0.468 0.174 0.934 0.43 1.337 0.010 0.018 0.020 0.035 0.030 0.054-0.008 0.025-0.017 0.049-0.025 0.075-0.084-0.070-0.125-0.163-0.172-0.259-0.009-0.018-0.017-0.036-0.026-0.054-0.394-0.812-0.487-1.816-0.201-2.679 0.103-0.288 0.233-0.615 0.424-0.857z"></path>
<path fill="#d26437" style="fill: var(--color7, #d26437)" d="M11.65 14.175c0.662 0.034 1.524 0.187 2 0.7-0.008 0.017-0.017 0.033-0.025 0.050-0.019-0.012-0.038-0.024-0.057-0.037-0.404-0.255-0.841-0.488-1.32-0.555-0.048-0.008-0.048-0.008-0.073-0.033-0.050-0.005-0.1-0.009-0.15-0.012-0.134-0.009-0.267-0.022-0.4-0.037 0.008-0.025 0.017-0.050 0.025-0.075z"></path>
<path fill="#d26034" style="fill: var(--color8, #d26034)" d="M11.625 14.175c0 0.008 0 0.017 0 0.025-0.123 0.039-0.241 0.060-0.37 0.072-0.462 0.049-0.934 0.155-1.338 0.39-0.038 0.022-0.078 0.043-0.117 0.063-0.017-0.008-0.033-0.017-0.050-0.025 0.416-0.454 1.292-0.545 1.875-0.525z"></path>
<path fill="#ce5736" style="fill: var(--color9, #ce5736)" d="M17.425 20.25c0.025 0 0.049 0 0.075 0-0.032 0.088-0.073 0.164-0.123 0.244-0.121 0.197-0.202 0.402-0.276 0.622-0.009 0.028-0.019 0.055-0.029 0.084-0.064 0.199-0.099 0.392-0.123 0.601-0.025 0-0.049 0-0.075 0 0.002-0.52 0.228-1.143 0.55-1.55z"></path>
<path fill="#d36537" style="fill: var(--color10, #d36537)" d="M15.367 3.689c0.174 0.058 0.338 0.131 0.502 0.212 0.021 0.010 0.042 0.021 0.063 0.031 0.119 0.061 0.218 0.127 0.318 0.217-0.017 0.016-0.033 0.033-0.050 0.050-0.013-0.008-0.026-0.017-0.040-0.026-0.387-0.242-0.8-0.404-1.244-0.506-0.031-0.007-0.031-0.007-0.064-0.015-0.019-0.005-0.038-0.009-0.058-0.013-0.044-0.015-0.044-0.015-0.069-0.066 0.154-0.077 0.482 0.063 0.642 0.114z"></path>
<path fill="#ce5936" style="fill: var(--color11, #ce5936)" d="M13.65 3.55c0.017 0.025 0.033 0.050 0.050 0.075-0.014 0.003-0.029 0.006-0.043 0.010-0.415 0.095-0.776 0.204-1.151 0.409-0.075 0.041-0.15 0.077-0.23 0.106 0-0.025 0-0.050 0-0.075 0.429-0.262 0.879-0.438 1.375-0.525z"></path>
<path fill="#d8733a" style="fill: var(--color12, #d8733a)" d="M15.050 18.225c0.008 0 0.017 0 0.025 0 0.007 0.145-0.017 0.27-0.053 0.411-0.006 0.022-0.011 0.044-0.017 0.066-0.082 0.31-0.192 0.596-0.355 0.873-0.008 0.017-0.017 0.033-0.025 0.050-0.017 0-0.033 0-0.050 0 0.044-0.145 0.099-0.281 0.161-0.419 0.118-0.265 0.194-0.537 0.256-0.82 0.030-0.134 0.030-0.134 0.058-0.162z"></path>
<path fill="#d36638" style="fill: var(--color6, #d36638)" d="M20.25 14.5c0.105 0.037 0.198 0.090 0.295 0.144 0.067 0.038 0.136 0.072 0.205 0.106 0.029 0.016 0.058 0.032 0.087 0.048 0.124 0.062 0.251 0.089 0.386 0.117 0.047 0.010 0.094 0.020 0.141 0.031 0.020 0.005 0.041 0.009 0.063 0.013 0.023 0.008 0.023 0.008 0.048 0.015 0.012 0.025 0.012 0.025 0.025 0.050-0.423 0.028-0.89-0.221-1.216-0.47-0.011-0.010-0.023-0.020-0.034-0.030 0-0.008 0-0.017 0-0.025z"></path>
<path fill="#d7713a" style="fill: var(--color13, #d7713a)" d="M17.65 7.775c0.017 0.008 0.033 0.016 0.050 0.025-0.013 0.186-0.059 0.349-0.119 0.525-0.009 0.026-0.017 0.052-0.026 0.078-0.047 0.141-0.101 0.27-0.177 0.399-0.029 0.049-0.054 0.098-0.078 0.149-0.017 0-0.033 0-0.050 0 0.008-0.041 0.017-0.082 0.025-0.125 0.017 0 0.033 0 0.050 0 0.005-0.033 0.005-0.033 0.009-0.066 0.015-0.081 0.039-0.145 0.072-0.22 0.091-0.213 0.178-0.435 0.219-0.664 0.008-0.034 0.017-0.067 0.025-0.1z"></path>
<path fill="#d36638" style="fill: var(--color6, #d36638)" d="M21.625 15c0.055 0.001 0.055 0.001 0.126 0.009 0.202 0.021 0.402 0.018 0.605 0.017 0.038 0 0.077-0 0.115-0 0.093-0 0.186-0.001 0.279-0.001 0.012 0.025 0.012 0.025 0.025 0.050-0.082 0.041-0.172 0.029-0.262 0.029-0.021 0-0.042 0-0.064 0-0.045 0-0.090 0-0.135 0-0.068 0-0.137 0.001-0.205 0.001-0.044 0-0.087 0-0.131 0-0.020 0-0.041 0-0.061 0.001-0.123-0.001-0.225-0.017-0.342-0.056 0.017-0.017 0.033-0.033 0.050-0.050z"></path>
<path fill="#d36638" style="fill: var(--color6, #d36638)" d="M14.775 16.3c0.060 0.054 0.088 0.096 0.113 0.173 0.006 0.019 0.012 0.038 0.019 0.058s0.012 0.041 0.019 0.062c0.007 0.021 0.013 0.042 0.020 0.064 0.070 0.233 0.137 0.472 0.13 0.717-0.074-0.061-0.089-0.111-0.106-0.204-0.005-0.026-0.010-0.051-0.015-0.078-0.007-0.040-0.007-0.040-0.015-0.081-0.034-0.183-0.073-0.353-0.145-0.526-0.021-0.066-0.023-0.118-0.020-0.186z"></path>
<path fill="#d16237" style="fill: var(--color14, #d16237)" d="M14.013 3.523c0.033 0 0.065 0 0.099 0s0.069 0.001 0.104 0.001c0.034 0 0.069 0 0.104 0 0.085 0 0.17 0.001 0.255 0.001 0.008 0.025 0.017 0.050 0.025 0.075-0.264 0-0.528 0-0.8 0 0-0.017 0-0.033 0-0.050 0.072-0.036 0.133-0.028 0.213-0.027z"></path>
<path fill="#d86e30" style="fill: var(--color15, #d86e30)" d="M24.875 9.225c0.049 0.020 0.049 0.020 0.1 0.050 0.008 0.025 0.017 0.050 0.025 0.075 0.025 0.017 0.049 0.033 0.075 0.050 0.023 0.047 0.047 0.094 0.070 0.142 0.033 0.063 0.071 0.117 0.113 0.174 0.073 0.102 0.135 0.207 0.192 0.319 0.015 0.029 0.030 0.058 0.045 0.088 0.029 0.076 0.037 0.104 0.005 0.178-0.077-0.139-0.151-0.277-0.219-0.42-0.1-0.203-0.236-0.384-0.376-0.562-0.030-0.043-0.030-0.043-0.030-0.093z"></path>
<path fill="#d36637" style="fill: var(--color16, #d36637)" d="M18.625 25.275c0.111 0.035 0.218 0.070 0.323 0.12 0.185 0.085 0.383 0.142 0.576 0.205-0.017 0.017-0.033 0.033-0.050 0.050-0.226-0.058-0.441-0.125-0.65-0.23-0.017-0.009-0.035-0.017-0.052-0.026-0.119-0.062-0.119-0.062-0.148-0.119z"></path>
<path fill="#f2900f" style="fill: var(--color17, #f2900f)" d="M5.839 7.108c0.074 0.015 0.132 0.020 0.206 0.016 0.13-0.005 0.241 0.043 0.355 0.102 0.016 0.016 0.033 0.033 0.050 0.050-0.030-0.007-0.060-0.014-0.091-0.022-0.159-0.035-0.319-0.057-0.479-0.080-0.030-0.004-0.060-0.008-0.090-0.013-0.188-0.027-0.375-0.047-0.564-0.060 0-0.008 0-0.016 0-0.025 0.218-0.030 0.4-0.016 0.614 0.033z"></path>
<path fill="#ce5736" style="fill: var(--color9, #ce5736)" d="M10.425 14.4c-0.025 0.050-0.025 0.050-0.076 0.070-0.022 0.007-0.044 0.014-0.068 0.022-0.149 0.051-0.279 0.122-0.415 0.2-0.022 0.011-0.044 0.021-0.066 0.032-0.017-0.008-0.033-0.017-0.050-0.025 0.095-0.106 0.186-0.162 0.316-0.219 0.017-0.008 0.034-0.015 0.051-0.023 0.203-0.091 0.203-0.091 0.309-0.058z"></path>
<path fill="#d36638" style="fill: var(--color6, #d36638)" d="M17.45 5.65c0.062 0.055 0.089 0.099 0.114 0.178 0.006 0.020 0.013 0.040 0.020 0.061s0.013 0.042 0.019 0.064c0.007 0.021 0.013 0.041 0.020 0.062 0.043 0.137 0.065 0.267 0.077 0.41-0.072-0.067-0.083-0.103-0.1-0.2-0.011-0.038-0.023-0.075-0.035-0.112-0.007-0.021-0.014-0.041-0.020-0.063-0.014-0.043-0.028-0.086-0.043-0.128-0.006-0.021-0.013-0.041-0.020-0.062-0.009-0.028-0.009-0.028-0.019-0.056-0.013-0.053-0.013-0.053-0.013-0.153z"></path>
<path fill="#d8723a" style="fill: var(--color18, #d8723a)" d="M23.575 14.775c0.017 0.008 0.033 0.017 0.050 0.025 0 0.017 0 0.033 0 0.050-0.089 0.030-0.178 0.059-0.267 0.088-0.025 0.008-0.050 0.017-0.076 0.025-0.037 0.012-0.037 0.012-0.074 0.024-0.022 0.007-0.045 0.015-0.068 0.022-0.066 0.016-0.122 0.019-0.19 0.016 0.058-0.067 0.105-0.090 0.19-0.114 0.022-0.007 0.044-0.013 0.067-0.020 0.035-0.009 0.035-0.009 0.070-0.019 0.046-0.013 0.091-0.026 0.137-0.040 0.020-0.005 0.040-0.011 0.061-0.017 0.052-0.014 0.052-0.014 0.101-0.040z"></path>
<path fill="#ca4d35" style="fill: var(--color19, #ca4d35)" d="M12.825 3.85c-0.042 0.084-0.136 0.11-0.219 0.15-0.018 0.009-0.036 0.018-0.054 0.027-0.091 0.045-0.182 0.087-0.277 0.123 0-0.025 0-0.050 0-0.075 0.056-0.032 0.111-0.065 0.167-0.097 0.015-0.009 0.031-0.018 0.047-0.027 0.233-0.135 0.233-0.135 0.335-0.1z"></path>
<path fill="#d66830" style="fill: var(--color20, #d66830)" d="M16.875 21.8c0.068 0.1 0.056 0.206 0.055 0.322 0 0.020 0 0.040 0 0.060-0.001 0.109-0.008 0.211-0.030 0.318-0.008 0-0.017 0-0.025 0-0.037-0.231-0.044-0.47 0-0.7z"></path>
<path fill="#d56b39" style="fill: var(--color21, #d56b39)" d="M15.050 18.225c0.008 0 0.017 0 0.025 0 0.005 0.134-0.011 0.245-0.047 0.372-0.004 0.017-0.008 0.034-0.013 0.051-0.012 0.043-0.026 0.085-0.040 0.127-0.017 0.008-0.033 0.017-0.050 0.025 0.031-0.481 0.031-0.481 0.125-0.575z"></path>
<path fill="#d05f37" style="fill: var(--color22, #d05f37)" d="M13.175 14.575c0.097 0.035 0.179 0.081 0.265 0.136 0.024 0.015 0.047 0.030 0.072 0.045 0.053 0.037 0.095 0.072 0.138 0.119-0.008 0.017-0.017 0.033-0.025 0.050-0.051-0.031-0.102-0.063-0.153-0.094-0.014-0.009-0.028-0.018-0.043-0.026-0.095-0.058-0.187-0.118-0.279-0.18 0.008-0.017 0.017-0.033 0.025-0.050z"></path>
<path fill="#d26337" style="fill: var(--color23, #d26337)" d="M10.925 14.275c0 0.017 0 0.033 0 0.050-0.055 0.012-0.109 0.024-0.164 0.036-0.030 0.007-0.061 0.013-0.092 0.020-0.090 0.018-0.178 0.032-0.269 0.044 0.008-0.025 0.017-0.050 0.025-0.075 0.074-0.030 0.074-0.030 0.167-0.056 0.030-0.009 0.061-0.018 0.092-0.027 0.091-0.017 0.152-0.013 0.24 0.008z"></path>
<path fill="#c84734" style="fill: var(--color24, #c84734)" d="M17.425 20.25c0.025 0 0.049 0 0.075 0-0.035 0.092-0.076 0.18-0.122 0.267-0.012 0.024-0.024 0.047-0.037 0.072-0.043 0.064-0.070 0.084-0.141 0.111 0.034-0.112 0.078-0.208 0.136-0.309 0.015-0.026 0.030-0.053 0.045-0.080 0.014-0.020 0.029-0.040 0.044-0.060z"></path>
<path fill="#f29110" style="fill: var(--color25, #f29110)" d="M16.575 4.425c0.167 0.083 0.317 0.233 0.4 0.4-0.107-0.042-0.177-0.12-0.256-0.2-0.014-0.014-0.028-0.027-0.042-0.042-0.102-0.102-0.102-0.102-0.102-0.159z"></path>
<path fill="#f49c1b" style="fill: var(--color26, #f49c1b)" d="M8.8 11.3c0.017 0 0.033 0 0.050 0-0.014 0.151-0.047 0.283-0.1 0.425-0.028-0.040-0.028-0.040-0.050-0.1 0.017-0.081 0.017-0.081 0.047-0.169 0.009-0.029 0.019-0.059 0.029-0.089 0.008-0.022 0.016-0.044 0.024-0.068z"></path>
<path fill="#d66d39" style="fill: var(--color27, #d66d39)" d="M17.475 8.5c0.008 0.017 0.017 0.033 0.025 0.050-0.029 0.067-0.029 0.067-0.070 0.147-0.020 0.039-0.020 0.039-0.041 0.079-0.013 0.024-0.026 0.049-0.038 0.074-0.017 0.033-0.034 0.066-0.050 0.1-0.017 0-0.033 0-0.050 0 0.008-0.041 0.017-0.082 0.025-0.125 0.017 0 0.033 0 0.050 0 0.003-0.023 0.006-0.045 0.009-0.069 0.014-0.071 0.030-0.12 0.066-0.181 0.017 0 0.033 0 0.050 0 0.008-0.025 0.017-0.050 0.025-0.075z"></path>
<path fill="#cf5c36" style="fill: var(--color28, #cf5c36)" d="M16.975 21.45c-0.008 0.116-0.017 0.231-0.025 0.35-0.025 0-0.049 0-0.075 0 0.003-0.054 0.006-0.107 0.009-0.161 0.003-0.045 0.003-0.045 0.005-0.090 0.003-0.024 0.007-0.049 0.010-0.073 0.050-0.025 0.050-0.025 0.075-0.025z"></path>
<path fill="#c43933" style="fill: var(--color29, #c43933)" d="M9.775 14.625c0.017 0.008 0.033 0.017 0.050 0.025-0.056 0.073-0.098 0.124-0.175 0.175-0.025 0-0.050 0-0.075 0 0 0.017 0 0.033 0 0.050-0.025 0-0.050 0-0.075 0 0 0.017 0 0.033 0 0.050-0.017 0-0.033 0-0.050 0 0.038-0.102 0.103-0.145 0.191-0.206 0.025-0.018 0.050-0.035 0.076-0.053 0.019-0.013 0.039-0.027 0.059-0.040z"></path>
<path fill="#d36638" style="fill: var(--color6, #d36638)" d="M14.85 24.925c0.105 0.039 0.163 0.118 0.231 0.203 0.017 0.021 0.017 0.021 0.035 0.043 0.028 0.035 0.056 0.070 0.084 0.104-0.008 0.017-0.017 0.033-0.025 0.050-0.054-0.057-0.108-0.114-0.162-0.172-0.023-0.024-0.023-0.024-0.047-0.049-0.015-0.015-0.029-0.031-0.044-0.047-0.014-0.015-0.027-0.029-0.041-0.044-0.030-0.038-0.030-0.038-0.030-0.088z"></path>
<path fill="#d36638" style="fill: var(--color6, #d36638)" d="M11.55 9.475c0.083 0.036 0.136 0.081 0.198 0.145 0.017 0.018 0.034 0.036 0.052 0.054 0.024 0.025 0.024 0.025 0.049 0.051s0.050 0.050 0.075 0.075c0.017 0.017 0.033 0.033 0.050 0.050-0.098-0.034-0.164-0.076-0.241-0.145-0.019-0.017-0.038-0.034-0.057-0.050-0.054-0.056-0.090-0.111-0.127-0.179z"></path>
<path fill="#f2a027" style="fill: var(--color30, #f2a027)" d="M14.275 30.4c0.074 0.028 0.133 0.055 0.2 0.1-0.017 0-0.033 0-0.050 0 0.008 0.033 0.017 0.066 0.025 0.1-0.033 0-0.066 0-0.1 0 0-0.017 0-0.033 0-0.050-0.017 0-0.033 0-0.050 0-0.008-0.049-0.017-0.099-0.025-0.15z"></path>
<path fill="#f49a1a" style="fill: var(--color31, #f49a1a)" d="M8.85 10.25c0.008 0 0.017 0 0.025 0 0.008 0.132 0.017 0.264 0.025 0.4-0.017 0-0.033 0-0.050 0-0.025-0.124-0.034-0.248-0.025-0.375 0.008-0.008 0.017-0.017 0.025-0.025z"></path>
<path fill="#d05f37" style="fill: var(--color22, #d05f37)" d="M13.65 3.55c0.017 0.025 0.033 0.050 0.050 0.075-0.035 0.009-0.071 0.018-0.106 0.026-0.020 0.005-0.040 0.010-0.060 0.015-0.062 0.009-0.101 0.003-0.159-0.017 0.008-0.017 0.017-0.033 0.025-0.050 0.057-0.016 0.057-0.016 0.127-0.028 0.023-0.004 0.046-0.009 0.070-0.013 0.018-0.003 0.036-0.006 0.054-0.009z"></path>
<path fill="#d9753b" style="fill: var(--color32, #d9753b)" d="M23.625 14.8c0 0.017 0 0.033 0 0.050-0.049 0.018-0.098 0.034-0.147 0.052-0.027 0.010-0.055 0.019-0.082 0.029-0.070 0.020-0.070 0.020-0.12-0.005 0.084-0.074 0.24-0.18 0.35-0.125z"></path>
<path fill="#f49e1d" style="fill: var(--color33, #f49e1d)" d="M8.85 10.775c0.017 0 0.033 0 0.050 0 0.002 0.136 0.003 0.266-0.025 0.4-0.008 0-0.017 0-0.025 0-0.021-0.14-0.027-0.261 0-0.4z"></path>
<path fill="#f39615" style="fill: var(--color34, #f39615)" d="M8.575 9.275c0.017 0 0.033 0 0.050 0 0.017 0.040 0.034 0.081 0.050 0.122 0.014 0.034 0.014 0.034 0.028 0.069 0.022 0.059 0.022 0.059 0.022 0.11-0.075-0.025-0.075-0.025-0.099-0.069-0.006-0.018-0.012-0.035-0.018-0.053s-0.012-0.035-0.019-0.053c-0.014-0.050-0.014-0.050-0.014-0.125z"></path>
<path fill="#d46938" style="fill: var(--color35, #d46938)" d="M17.7 6.525c0.065 0.065 0.059 0.101 0.066 0.191 0.002 0.025 0.004 0.050 0.006 0.076 0.001 0.019 0.003 0.039 0.004 0.059-0.017 0-0.033 0-0.050 0-0.061-0.211-0.061-0.211-0.025-0.325z"></path>
<path fill="#e37d24" style="fill: var(--color36, #e37d24)" d="M18.075 24.875c0.116 0.065 0.22 0.144 0.325 0.225-0.046 0.015-0.046 0.015-0.1 0.025-0.063-0.042-0.063-0.042-0.125-0.1-0.019-0.017-0.038-0.035-0.058-0.053-0.042-0.047-0.042-0.047-0.042-0.097z"></path>
<path fill="#ec8b1b" style="fill: var(--color37, #ec8b1b)" d="M14.3 15.525c0.098 0.033 0.144 0.099 0.204 0.179 0.027 0.059 0.018 0.087-0.004 0.146-0.034-0.050-0.067-0.099-0.1-0.149-0.009-0.014-0.019-0.028-0.029-0.043-0.071-0.106-0.071-0.106-0.071-0.134z"></path>
<path fill="#d8743a" style="fill: var(--color38, #d8743a)" d="M17.575 8.225c0.034 0.068 0.017 0.094-0.006 0.164-0.006 0.020-0.013 0.040-0.019 0.061-0.008 0.017-0.016 0.033-0.024 0.050-0.025 0.008-0.049 0.017-0.075 0.025 0.017-0.074 0.033-0.149 0.050-0.225 0.017 0 0.033 0 0.050 0 0.008-0.025 0.017-0.050 0.025-0.075z"></path>
<path fill="#f29211" style="fill: var(--color39, #f29211)" d="M8.7 9.625c0.017 0 0.033 0 0.050 0 0.025 0.099 0.050 0.198 0.075 0.3-0.017 0-0.033 0-0.050 0-0.013-0.031-0.025-0.063-0.037-0.094-0.007-0.018-0.014-0.035-0.021-0.053-0.017-0.053-0.017-0.053-0.017-0.153z"></path>
<path fill="#ed8a14" style="fill: var(--color40, #ed8a14)" d="M5.725 7.1c-0.008 0.016-0.016 0.033-0.025 0.050-0.157-0.016-0.314-0.033-0.475-0.050 0-0.008 0-0.016 0-0.025 0.341-0.038 0.341-0.038 0.5 0.025z"></path>
<path fill="#f5a423" style="fill: var(--color41, #f5a423)" d="M8.675 11.75c0.017 0 0.033 0 0.050 0-0.014 0.114-0.045 0.199-0.1 0.3-0.008 0-0.017 0-0.025 0 0.021-0.214 0.021-0.214 0.075-0.3z"></path>
<path fill="#d66d39" style="fill: var(--color27, #d66d39)" d="M17.75 7.3c0.008 0 0.017 0 0.025 0 0.002 0.113 0.003 0.215-0.025 0.325-0.050-0.050-0.050-0.050-0.056-0.135 0.006-0.082 0.013-0.123 0.056-0.191z"></path>
<path fill="#e9841a" style="fill: var(--color42, #e9841a)" d="M13.75 29.075c0.017 0 0.033 0 0.050 0 0.029 0.099 0.056 0.198 0.075 0.3-0.025-0.008-0.050-0.017-0.075-0.025-0.040-0.094-0.056-0.173-0.050-0.275z"></path>
<path fill="#cc5235" style="fill: var(--color43, #cc5235)" d="M17.25 20.65c0.008 0.017 0.017 0.033 0.025 0.050-0.055 0.164-0.055 0.164-0.128 0.206-0.016 0.006-0.031 0.013-0.047 0.020 0.011-0.037 0.021-0.073 0.033-0.11 0.006-0.020 0.012-0.041 0.018-0.061 0.024-0.054 0.024-0.054 0.099-0.104z"></path>
<path fill="#c63f33" style="fill: var(--color44, #c63f33)" d="M8.975 15.325c-0.014 0.095-0.053 0.139-0.125 0.2-0.017 0-0.033 0-0.050 0 0.014-0.097 0.066-0.2 0.175-0.2z"></path>
<path fill="#cd5536" style="fill: var(--color45, #cd5536)" d="M10.425 14.4c-0.008 0.017-0.017 0.033-0.025 0.050-0.052 0.016-0.052 0.016-0.114 0.028-0.021 0.004-0.041 0.008-0.063 0.013-0.016 0.003-0.032 0.006-0.048 0.009-0.008-0.017-0.017-0.033-0.025-0.050 0.186-0.089 0.186-0.089 0.275-0.050z"></path>
<path fill="#d96f2e" style="fill: var(--color46, #d96f2e)" d="M21.425 21c0 0.075 0 0.075-0.050 0.15-0.008-0.017-0.017-0.033-0.025-0.050 0.025-0.033 0.049-0.066 0.075-0.1z"></path>
<path fill="#d36638" style="fill: var(--color6, #d36638)" d="M19.7 25.3c0.008 0 0.017 0 0.025 0 0 0.041 0 0.082 0 0.125-0.008 0-0.017 0-0.025 0 0-0.041 0-0.082 0-0.125z"></path>
<path fill="#fabd3d" style="fill: var(--color47, #fabd3d)" d="M20.45 23.4c0.025 0.1 0.025 0.1 0.025 0.1z"></path>
<path fill="#d36638" style="fill: var(--color6, #d36638)" d="M21.75 20.125c0.025 0.1 0.025 0.1 0.025 0.1z"></path>
<path fill="#f2900f" style="fill: var(--color17, #f2900f)" d="M5.275 2c0.075 0.025 0.075 0.025 0.075 0.025z"></path>
<path fill="#f2900f" style="fill: var(--color17, #f2900f)" d="M4.175 2.55c0.050 0.025 0.050 0.025 0.050 0.025z"></path>
<path fill="#f2900f" style="fill: var(--color17, #f2900f)" d="M4.6 2.3c0.050 0.025 0.050 0.025 0.050 0.025z"></path>
<path fill="#f2900f" style="fill: var(--color17, #f2900f)" d="M4.775 2.225c0.050 0.025 0.050 0.025 0.050 0.025z"></path>
<path fill="#f2900f" style="fill: var(--color17, #f2900f)" d="M26.525 1.925c0.050 0.025 0.050 0.025 0.050 0.025z"></path>
<path fill="#f2900f" style="fill: var(--color17, #f2900f)" d="M5.55 1.875c0.050 0.025 0.050 0.025 0.050 0.025z"></path>
<path fill="#f2900f" style="fill: var(--color17, #f2900f)" d="M25.325 1.425c0.050 0.025 0.050 0.025 0.050 0.025z"></path>
<path fill="#f2900f" style="fill: var(--color17, #f2900f)" d="M6.6 1.425c0.050 0.025 0.050 0.025 0.050 0.025z"></path>
</symbol>
</defs>
</svg>